<svg width="30" height="30" viewBox="0 0 30 30" fill="none" xmlns="http://www.w3.org/2000/svg">
<path fill-rule="evenodd" clip-rule="evenodd" d="M3.75 3.75C2.36938 3.75 1.25 4.86923 1.25 6.25V23.75C1.25 25.1308 2.36938 26.25 3.75 26.25H26.25C27.6306 26.25 28.75 25.1308 28.75 23.75V6.25C28.75 4.86923 27.6306 3.75 26.25 3.75H3.75ZM21.25 7.5H15V15.2135C14.6091 15.0752 14.1882 15 13.75 15C11.6791 15 10 16.6789 10 18.75C10 20.8211 11.6791 22.5 13.75 22.5C15.8209 22.5 17.5 20.8211 17.5 18.75V10H21.25V7.5Z" fill="#E29065"/>
</svg>
