<svg width="60" height="60" viewBox="0 0 60 60" fill="none" xmlns="http://www.w3.org/2000/svg">
<circle cx="31.919" cy="30" r="22.6667" stroke="#E29065" stroke-width="1.33333"/>
<circle cx="32.2523" cy="30.3333" r="4.33333" stroke="#E29065" stroke-width="1.33333"/>
<path fill-rule="evenodd" clip-rule="evenodd" d="M8.28338 11.6008C7.58934 11.7979 7.18652 12.5204 7.38365 13.2144L7.74059 14.4711C7.74149 14.4742 7.7424 14.4774 7.74331 14.4805L9.09691 19.2461C8.55719 19.1391 7.98469 19.1548 7.41906 19.3155C5.51044 19.8576 4.40268 21.8443 4.94479 23.7529C5.48691 25.6615 7.47362 26.7693 9.38223 26.2272C11.2908 25.6851 12.3986 23.6984 11.8565 21.7898C11.8264 21.6839 11.7919 21.5804 11.7532 21.4796L11.7673 21.4756L9.98258 15.1923L18.7793 12.6938L19.7787 16.2121C19.2389 16.1051 18.6664 16.1208 18.1008 16.2815C16.1922 16.8236 15.0844 18.8103 15.6265 20.7189C16.1686 22.6275 18.1554 23.7353 20.064 23.1932C21.9726 22.6511 23.0804 20.6644 22.5382 18.7558C22.5082 18.6499 22.4736 18.5464 22.4349 18.4456L22.449 18.4416L20.1289 10.2733L20.1288 10.2733L19.9504 9.64501C19.7533 8.95096 19.0308 8.54814 18.3368 8.74527L8.28338 11.6008Z" fill="#EDAB89"/>
<path fill-rule="evenodd" clip-rule="evenodd" d="M48.0489 34.5332C47.264 34.7141 46.7745 35.4971 46.9554 36.282L47.1193 36.9927L47.1193 36.9927L48.5283 43.1035C47.9325 42.9539 47.2933 42.9395 46.6536 43.087C44.4952 43.5847 43.1489 45.7379 43.6466 47.8963C44.1443 50.0547 46.2975 51.401 48.456 50.9033C50.6144 50.4056 51.9607 48.2524 51.463 46.094C51.4354 45.9742 51.4026 45.8569 51.3651 45.7423L51.381 45.7386L49.7426 38.6328L54.006 37.6497C54.7909 37.4687 55.2805 36.6857 55.0995 35.9008L54.7718 34.4797C54.5908 33.6948 53.8078 33.2052 53.0229 33.3862L48.0489 34.5332Z" fill="#EDAB89"/>
</svg>
