<svg width="40" height="40" viewBox="0 0 40 40" fill="none" xmlns="http://www.w3.org/2000/svg">
<path d="M20 3.33325C10.8333 3.33325 3.33334 10.8333 3.33334 19.9999C3.33334 29.1666 10.8333 36.6666 20 36.6666C29.1667 36.6666 36.6667 29.1666 36.6667 19.9999C36.6667 10.8333 29.1667 3.33325 20 3.33325ZM20 33.3333C12.65 33.3333 6.66668 27.3499 6.66668 19.9999C6.66668 12.6499 12.65 6.66659 20 6.66659C27.35 6.66659 33.3333 12.6499 33.3333 19.9999C33.3333 27.3499 27.35 33.3333 20 33.3333ZM20.8333 11.6666H18.3333V21.6666L27 26.9999L28.3333 24.8333L20.8333 20.3333V11.6666Z" fill="#EDAB89"/>
</svg>
