<svg width="40" height="40" viewBox="0 0 40 40" fill="none" xmlns="http://www.w3.org/2000/svg">
<path d="M20 3.33325C10.8 3.33325 3.33334 10.7999 3.33334 19.9999C3.33334 29.1999 10.8 36.6666 20 36.6666C29.2 36.6666 36.6667 29.1999 36.6667 19.9999C36.6667 10.7999 29.2 3.33325 20 3.33325ZM11.7833 30.4666C12.5 28.9666 16.8667 27.4999 20 27.4999C23.1333 27.4999 27.5167 28.9666 28.2167 30.4666C25.95 32.2666 23.1 33.3333 20 33.3333C16.9 33.3333 14.05 32.2666 11.7833 30.4666ZM30.6 28.0499C28.2167 25.1499 22.4333 24.1666 20 24.1666C17.5667 24.1666 11.7833 25.1499 9.40001 28.0499C7.70001 25.8166 6.66668 23.0333 6.66668 19.9999C6.66668 12.6499 12.65 6.66659 20 6.66659C27.35 6.66659 33.3333 12.6499 33.3333 19.9999C33.3333 23.0333 32.3 25.8166 30.6 28.0499ZM20 9.99992C16.7667 9.99992 14.1667 12.5999 14.1667 15.8333C14.1667 19.0666 16.7667 21.6666 20 21.6666C23.2333 21.6666 25.8333 19.0666 25.8333 15.8333C25.8333 12.5999 23.2333 9.99992 20 9.99992ZM20 18.3333C18.6167 18.3333 17.5 17.2166 17.5 15.8333C17.5 14.4499 18.6167 13.3333 20 13.3333C21.3833 13.3333 22.5 14.4499 22.5 15.8333C22.5 17.2166 21.3833 18.3333 20 18.3333Z" fill="#EDAB89"/>
</svg>
