<svg width="40" height="40" viewBox="0 0 40 40" fill="none" xmlns="http://www.w3.org/2000/svg">
<path d="M11.2667 8.06675L8.26666 5.08342L5.91666 7.43341L8.89999 10.4167L11.2667 8.06675ZM1.66666 17.5001H6.66666V20.8334H1.66666V17.5001ZM18.3333 0.916748H21.6667V5.83342H18.3333V0.916748ZM31.7333 5.07508L34.08 7.42008L31.0967 10.4034L28.7517 8.05675L31.7333 5.07508ZM28.7333 30.2668L31.7167 33.2668L34.0667 30.9167L31.0667 27.9334L28.7333 30.2668ZM33.3333 17.5001H38.3333V20.8334H33.3333V17.5001ZM20 9.16675C14.4833 9.16675 9.99999 13.6501 9.99999 19.1667C9.99999 24.6834 14.4833 29.1667 20 29.1667C25.5167 29.1667 30 24.6834 30 19.1667C30 13.6501 25.5167 9.16675 20 9.16675ZM20 25.8334C16.3167 25.8334 13.3333 22.8501 13.3333 19.1667C13.3333 15.4834 16.3167 12.5001 20 12.5001C23.6833 12.5001 26.6667 15.4834 26.6667 19.1667C26.6667 22.8501 23.6833 25.8334 20 25.8334ZM18.3333 32.5001H21.6667V37.4168H18.3333V32.5001ZM5.91666 30.9001L8.26666 33.2501L11.25 30.2501L8.89999 27.9001L5.91666 30.9001Z" fill="#EDAB89"/>
</svg>
