<svg width="80" height="34" viewBox="0 0 80 34" fill="none" xmlns="http://www.w3.org/2000/svg">
<g clip-path="url(#clip0_31_211)">
<g clip-path="url(#clip1_31_211)">
<path d="M5.88476 4.59998L3.9729 6.51184L9.88476 12.4237L9.49154 12.8305H4.06782V20.9661H9.49154L16.2712 27.7457V18.8101L21.939 24.4779C21.0576 25.1423 20.0678 25.6712 18.9831 25.983V28.7762C20.8 28.3695 22.4678 27.5288 23.878 26.4034L26.6576 29.183L28.5695 27.2712L5.88476 4.59998ZM13.5593 21.1966L10.617 18.2542H6.77968V15.5423H10.617L11.8102 14.3491L13.5593 16.0983V21.1966ZM25.7627 16.8983C25.7627 18.0101 25.5593 19.0813 25.2068 20.0712L27.2814 22.1457C28.0407 20.5593 28.4746 18.783 28.4746 16.8983C28.4746 11.0949 24.4204 6.24065 18.9831 5.00676V7.79998C22.9017 8.96608 25.7627 12.6 25.7627 16.8983ZM16.2712 6.05082L13.7221 8.59998L16.2712 11.1491V6.05082ZM22.3729 16.8983C22.3729 14.4983 20.9898 12.4373 18.9831 11.4339V13.861L22.3458 17.2237C22.3593 17.1152 22.3729 17.0068 22.3729 16.8983Z" fill="#FCF3EC"/>
</g>
<g clip-path="url(#clip2_31_211)">
<rect x="32.5425" y="14.8645" width="40.678" height="4.0678" rx="2.0339" fill="#FCF3EC" fill-opacity="0.5"/>
</g>
</g>
<defs>
<clipPath id="clip0_31_211">
<rect width="80" height="32.5424" fill="white" transform="translate(0 0.627075)"/>
</clipPath>
<clipPath id="clip1_31_211">
<rect width="32.5424" height="32.5424" fill="white" transform="translate(0 0.627075)"/>
</clipPath>
<clipPath id="clip2_31_211">
<rect width="47.4576" height="4.0678" fill="white" transform="translate(32.5425 14.8644)"/>
</clipPath>
</defs>
</svg>
