<svg width="38" height="38" viewBox="0 0 38 38" fill="none" xmlns="http://www.w3.org/2000/svg">
<path d="M28.3529 25.0659C27.1682 25.0659 26.1082 25.5336 25.2976 26.2662L14.1832 19.7971C14.2612 19.4386 14.3235 19.08 14.3235 18.7059C14.3235 18.3318 14.2612 17.9733 14.1832 17.6147L25.1729 11.208C26.0147 11.9874 27.1215 12.4706 28.3529 12.4706C30.9406 12.4706 33.0294 10.3818 33.0294 7.79415C33.0294 5.2065 30.9406 3.11768 28.3529 3.11768C25.7653 3.11768 23.6765 5.2065 23.6765 7.79415C23.6765 8.16826 23.7388 8.52679 23.8168 8.88532L12.8271 15.2921C11.9853 14.5127 10.8785 14.0294 9.64706 14.0294C7.05941 14.0294 4.97058 16.1183 4.97058 18.7059C4.97058 21.2936 7.05941 23.3824 9.64706 23.3824C10.8785 23.3824 11.9853 22.8991 12.8271 22.1197L23.9259 28.6044C23.8479 28.9318 23.8012 29.2747 23.8012 29.6177C23.8012 32.1274 25.8432 34.1694 28.3529 34.1694C30.8626 34.1694 32.9047 32.1274 32.9047 29.6177C32.9047 27.108 30.8626 25.0659 28.3529 25.0659ZM28.3529 6.23532C29.2103 6.23532 29.9118 6.93679 29.9118 7.79415C29.9118 8.6515 29.2103 9.35297 28.3529 9.35297C27.4956 9.35297 26.7941 8.6515 26.7941 7.79415C26.7941 6.93679 27.4956 6.23532 28.3529 6.23532ZM9.64706 20.2647C8.7897 20.2647 8.08823 19.5633 8.08823 18.7059C8.08823 17.8486 8.7897 17.1471 9.64706 17.1471C10.5044 17.1471 11.2059 17.8486 11.2059 18.7059C11.2059 19.5633 10.5044 20.2647 9.64706 20.2647ZM28.3529 31.2077C27.4956 31.2077 26.7941 30.5062 26.7941 29.6489C26.7941 28.7915 27.4956 28.09 28.3529 28.09C29.2103 28.09 29.9118 28.7915 29.9118 29.6489C29.9118 30.5062 29.2103 31.2077 28.3529 31.2077Z" fill="#FCF3EC"/>
</svg>
